<svg width="20" height="20" viewBox="0 0 20 20" fill="none" xmlns="http://www.w3.org/2000/svg">
<path d="M19.1115 7.41927C19.0539 7.24946 18.9478 7.10025 18.8063 6.99006C18.6648 6.87987 18.4941 6.81353 18.3154 6.79922L13.0862 6.38371L10.8234 1.3747C10.7513 1.21337 10.6341 1.07634 10.4859 0.980156C10.3377 0.883971 10.1648 0.832739 9.98809 0.832642C9.8114 0.832545 9.63845 0.883587 9.49013 0.979609C9.3418 1.07563 9.22444 1.21253 9.15219 1.37378L6.88938 6.38371L1.66023 6.79922C1.48454 6.81314 1.31657 6.87738 1.17644 6.98425C1.0363 7.09113 0.929918 7.23612 0.870023 7.40187C0.810128 7.56762 0.799253 7.74712 0.838701 7.91889C0.878149 8.09066 0.966248 8.24743 1.09246 8.37044L4.95677 12.1375L3.59009 18.0555C3.54859 18.2347 3.56189 18.4221 3.62826 18.5936C3.69463 18.7651 3.81102 18.9127 3.9623 19.0172C4.11359 19.1217 4.2928 19.1783 4.47667 19.1797C4.66054 19.1811 4.84059 19.1272 4.99345 19.025L9.9878 15.6955L14.9821 19.025C15.1384 19.1288 15.3226 19.1822 15.5101 19.1781C15.6976 19.1739 15.8794 19.1125 16.0309 19.002C16.1824 18.8916 16.2965 18.7373 16.3578 18.5601C16.419 18.3828 16.4246 18.1911 16.3736 18.0106L14.696 12.1403L18.8565 8.39612C19.129 8.15031 19.2289 7.7669 19.1115 7.41927Z" fill="#F3CD03"/>
</svg>
